<?xml version="1.0" encoding="utf-8"?>
<!-- Generator: Adobe Illustrator 22.0.0, SVG Export Plug-In . SVG Version: 6.00 Build 0)  -->
<svg version="1.1" id="Layer_1" xmlns="http://www.w3.org/2000/svg" xmlns:xlink="http://www.w3.org/1999/xlink" x="0px" y="0px"
	 viewBox="0 0 427.9 124.2" style="enable-background:new 0 0 427.9 124.2;" xml:space="preserve">
<style type="text/css">
	.st0{fill:#414447;}
</style>
<g>
	<path class="st0" d="M38.8,119.4c-7.8,0-13.9-1.1-18.4-3.4s-8-5.1-10.3-8.5c-2.3-3.4-3.8-7.1-4.4-11.1c-0.6-4-0.9-7.6-0.9-11
		c0-1.3,0.1-3.9,0.4-7.7c0.3-3.8,0.6-8.3,1-13.3C6.6,59.3,7,54,7.4,48.3c0.4-5.7,0.8-11.1,1.2-16.2c0.4-5.1,0.7-9.6,1-13.5
		c0.3-3.9,0.4-6.7,0.4-8.2c0-2.2,0.2-3.5,0.5-3.9C10.7,6.2,11.6,6,13.1,6H19c3,0,5.5,0.4,7.6,1.1c2,0.7,3.6,1.7,4.8,2.9
		c1.2,1.2,2.1,2.6,2.6,4.2c0.5,1.6,0.8,3.3,0.8,5.1c0,1.7-0.2,5-0.5,10c-0.4,4.9-0.8,10.7-1.3,17.4c2.6-4.5,5.6-7.9,8.9-10.1
		c3.3-2.2,7.7-3.2,13.2-3.2c9.2,0,16.2,3,21.1,9.1c4.9,6,7.3,15.1,7.3,27.1c0,3.1-0.2,6.6-0.7,10.3c-0.5,3.7-1.3,7.4-2.4,11.1
		c-1.2,3.7-2.8,7.3-4.8,10.7c-2.1,3.5-4.8,6.5-8.1,9.1c-3.3,2.6-7.3,4.7-12,6.3C50.7,118.6,45.2,119.4,38.8,119.4z M45.6,53.3
		c-3.6,0-6.5,1-8.5,2.9c-2.1,1.9-3.7,4.2-4.8,7c-1.1,2.7-1.8,5.6-2.1,8.7c-0.3,3.1-0.5,5.8-0.5,8.1c0,7,1,11.9,2.9,14.9
		c1.9,3,4.8,4.5,8.6,4.5c3.6,0,6.5-1.1,8.5-3.4c2.1-2.3,3.6-5,4.7-8.1c1.1-3.1,1.7-6.3,2-9.5c0.3-3.2,0.5-5.7,0.5-7.6
		c0-5.6-0.9-10-2.6-12.9C52.7,54.8,49.8,53.3,45.6,53.3z"/>
	<path class="st0" d="M107.7,119.3c-6.2,0-10.7-1.7-13.5-5c-2.7-3.3-4.1-8.8-4.1-16.5c0-1.2,0.1-2.7,0.2-4.5c0.2-1.8,0.4-4.2,0.6-7
		c0.3-2.9,0.6-6.4,1-10.7c0.4-4.2,0.8-9.4,1.3-15.4c0.5-6,1-13.2,1.5-21.3c0.6-8.2,1.1-17.6,1.7-28.4c0.1-2.2,0.4-3.5,0.8-3.9
		C97.5,6.2,98.4,6,99.7,6h5.9c3,0,5.5,0.4,7.6,1.1c2,0.7,3.6,1.7,4.8,2.9s2.1,2.6,2.6,4.2c0.5,1.6,0.8,3.2,0.8,4.9
		c0,2-0.1,4.9-0.4,8.7c-0.3,3.8-0.6,8-1,12.8c-0.4,4.7-0.8,9.7-1.2,14.8c-0.4,5.1-0.8,10.1-1.2,14.7c-0.4,4.7-0.7,8.9-1,12.6
		c-0.3,3.7-0.4,6.6-0.4,8.5c0,2.6,0.5,4.5,1.4,5.6c1,1.1,2,1.9,3.1,2.3c1.1,0.5,2.1,0.8,3.1,0.9c1,0.2,1.4,0.5,1.4,1
		c0,2.2-0.3,4.4-0.8,6.6c-0.5,2.2-1.4,4.1-2.7,5.9c-1.3,1.8-3.1,3.2-5.4,4.2C114.1,118.7,111.2,119.3,107.7,119.3z"/>
	<path class="st0" d="M164.2,119.4c-7,0-12.7-1-17.3-2.9c-4.6-2-8.2-4.7-11-8.1c-2.7-3.4-4.6-7.4-5.7-12c-1.1-4.6-1.7-9.5-1.7-14.7
		c0-6,0.7-12,2.2-17.8c1.5-5.8,4-11,7.5-15.5c3.5-4.5,8.2-8.2,14-11c5.8-2.8,13-4.2,21.7-4.2c12.7,0,21.8,3.1,27.3,9.3
		c5.5,6.2,8.2,14.9,8.2,26.1c0,3.1-0.2,6.6-0.7,10.4s-1.3,7.5-2.6,11.3c-1.3,3.7-3,7.4-5.1,10.9c-2.2,3.5-4.9,6.7-8.2,9.4
		c-3.3,2.7-7.3,4.9-12,6.5C176,118.6,170.5,119.4,164.2,119.4z M171.3,53.3c-3.8,0-6.9,1-9.1,2.9c-2.3,2-4,4.3-5.1,7.1
		c-1.2,2.8-1.9,5.7-2.3,8.8c-0.4,3.1-0.5,5.7-0.5,7.8c0,6.7,1.1,11.5,3.2,14.7c2.1,3.1,5.1,4.7,9.1,4.7c3.5,0,6.4-1.1,8.7-3.3
		c2.3-2.2,4-4.9,5.3-8c1.3-3.1,2.1-6.4,2.6-9.8c0.5-3.4,0.7-6.3,0.7-8.6c0-5-0.9-9-2.8-11.9C179,54.8,175.8,53.3,171.3,53.3z"/>
	<path class="st0" d="M249.8,119.4c-7,0-12.7-1-17.3-2.9c-4.6-2-8.2-4.7-11-8.1c-2.7-3.4-4.6-7.4-5.7-12c-1.1-4.6-1.7-9.5-1.7-14.7
		c0-6,0.7-12,2.2-17.8c1.5-5.8,4-11,7.5-15.5c3.5-4.5,8.2-8.2,14-11c5.8-2.8,13-4.2,21.7-4.2c12.7,0,21.8,3.1,27.3,9.3
		c5.5,6.2,8.2,14.9,8.2,26.1c0,3.1-0.2,6.6-0.7,10.4c-0.5,3.8-1.3,7.5-2.6,11.3c-1.3,3.7-3,7.4-5.1,10.9c-2.2,3.5-4.9,6.7-8.2,9.4
		c-3.3,2.7-7.3,4.9-12,6.5C261.7,118.6,256.2,119.4,249.8,119.4z M256.9,53.3c-3.8,0-6.9,1-9.1,2.9s-4,4.3-5.1,7.1
		c-1.2,2.8-1.9,5.7-2.3,8.8c-0.4,3.1-0.5,5.7-0.5,7.8c0,6.7,1.1,11.5,3.2,14.7c2.1,3.1,5.1,4.7,9.1,4.7c3.5,0,6.4-1.1,8.7-3.3
		c2.3-2.2,4-4.9,5.3-8c1.3-3.1,2.1-6.4,2.6-9.8c0.5-3.4,0.7-6.3,0.7-8.6c0-5-0.9-9-2.8-11.9C264.6,54.8,261.4,53.3,256.9,53.3z"/>
	<path class="st0" d="M327.5,90.7c-0.3,4.6-0.7,9-1.1,13.2c-0.4,4.2-0.7,7.8-0.9,11c-0.1,1.2-0.4,2-0.8,2.4
		c-0.4,0.4-1.3,0.6-2.6,0.6h-5.4c-3.1,0-5.7-0.3-7.6-1c-2-0.7-3.5-1.6-4.7-2.8c-1.2-1.2-2-2.7-2.4-4.5c-0.5-1.8-0.7-3.8-0.7-6.1
		c0-1.5,0.1-3.7,0.2-6.4c0.2-2.8,0.4-6.6,0.8-11.5c0.4-4.9,0.9-11.1,1.4-18.6c0.6-7.5,1.2-16.8,2-27.9c0.1-2.2,0.4-3.5,0.8-3.9
		c0.3-0.3,1.1-0.5,2.4-0.5h5.9c3,0,5.5,0.4,7.4,1.1c1.9,0.7,3.5,1.6,4.7,2.7c1.2,1.1,2.1,2.4,2.6,3.9c0.5,1.5,0.8,3.1,0.9,4.7
		c2.9-5.4,6.2-9.1,10-11c3.7-1.9,8.1-2.9,13.2-2.9c2.7,0,5.3,0.3,7.9,0.8c2.5,0.5,4.8,1.4,6.8,2.6c2,1.2,3.7,2.8,5.1,4.8
		c1.4,2,2.4,4.5,3,7.5c3.1-5.8,6.5-9.9,10.3-12.2c3.7-2.3,8.4-3.4,14.1-3.4c3.1,0,6.1,0.3,9,1c2.9,0.7,5.4,1.8,7.5,3.4
		c2.1,1.6,3.8,3.8,5.1,6.6c1.3,2.8,1.9,6.2,1.9,10.4c0,3.1-0.2,7-0.5,11.5c-0.3,4.5-0.7,9.4-1.1,14.7c-0.4,5.3-0.9,10.7-1.4,16.3
		c-0.5,5.6-0.9,11-1.2,16.1c-0.1,1.1-0.2,2-0.3,2.6c-0.1,0.6-0.3,1.1-0.5,1.4c-0.3,0.3-0.6,0.5-1.1,0.6c-0.5,0.1-1.2,0.2-2.1,0.2
		h-4.8c-3.2,0-5.8-0.3-7.9-0.9c-2-0.6-3.6-1.5-4.7-2.6c-1.1-1.1-1.9-2.5-2.3-4.2c-0.5-1.7-0.7-3.6-0.7-5.7c0-1.3,0.1-3.2,0.2-5.6
		c0.2-2.4,0.4-5,0.6-7.9c0.2-2.8,0.5-5.7,0.8-8.8c0.3-3,0.5-5.8,0.8-8.4c0.3-2.6,0.5-4.8,0.6-6.7c0.2-1.9,0.2-3.2,0.2-3.8
		c0-2.6-0.5-4.9-1.6-7c-1.1-2-3.1-3-6.1-3c-2.6,0-4.9,0.9-6.8,2.6c-1.9,1.7-3.5,4.1-4.8,7.1c-1.3,3-2.4,6.6-3.2,10.7
		c-0.8,4.1-1.4,8.6-1.7,13.5c-0.2,3.1-0.5,6.7-0.8,10.7c-0.3,4-0.7,9.1-1.1,15.1c-0.1,1.1-0.2,2-0.3,2.6c-0.1,0.6-0.3,1.1-0.5,1.4
		c-0.3,0.3-0.6,0.5-1.1,0.6c-0.5,0.1-1.2,0.2-2.1,0.2h-4.8c-3.2,0-5.8-0.3-7.9-0.9c-2-0.6-3.6-1.5-4.7-2.6c-1.1-1.1-1.9-2.5-2.3-4.2
		c-0.5-1.7-0.7-3.6-0.7-5.7c0-2,0.2-5,0.5-8.8c0.4-3.9,0.7-7.9,1.1-12.1c0.4-4.2,0.7-8.2,1.1-11.9c0.4-3.8,0.5-6.5,0.5-8.2
		c0-2.6-0.5-4.9-1.6-7c-1.1-2-3.1-3-6.1-3c-2.7,0-5,1-7,3c-1.9,2-3.5,4.7-4.8,8.1c-1.3,3.4-2.3,7.3-3,11.9
		C328.3,81,327.8,85.8,327.5,90.7z"/>
</g>
</svg>
