<?xml version="1.0" encoding="utf-8"?>
<!-- Generator: Adobe Illustrator 22.0.0, SVG Export Plug-In . SVG Version: 6.00 Build 0)  -->
<svg version="1.1" id="Layer_1" xmlns="http://www.w3.org/2000/svg" xmlns:xlink="http://www.w3.org/1999/xlink" x="0px" y="0px"
	 viewBox="0 0 443.7 124.2" style="enable-background:new 0 0 443.7 124.2;" xml:space="preserve">
<style type="text/css">
	.st0{fill:#333333;}
</style>
<g>
	<path class="st0" d="M37.5,119.7c-7.7,0-13.8-1.1-18.3-3.4s-7.9-5.1-10.2-8.5c-2.3-3.4-3.8-7.1-4.4-11c-0.6-3.9-0.9-7.6-0.9-10.9
		c0-1.3,0.1-3.8,0.4-7.6c0.2-3.8,0.6-8.2,1-13.2c0.4-5,0.8-10.3,1.2-16c0.4-5.6,0.8-11,1.2-16.1c0.4-5,0.7-9.5,1-13.4
		c0.2-3.9,0.4-6.6,0.4-8.1c0-2.2,0.1-3.5,0.5-3.8c0.3-0.3,1.2-0.5,2.7-0.5h5.9c3,0,5.5,0.4,7.5,1.1c2,0.7,3.6,1.6,4.8,2.9
		c1.2,1.2,2,2.6,2.6,4.1c0.5,1.6,0.8,3.2,0.8,5c0,1.7-0.2,5-0.5,9.9c-0.4,4.9-0.8,10.6-1.3,17.2c2.6-4.5,5.6-7.8,8.9-10
		c3.3-2.1,7.7-3.2,13.1-3.2c9.1,0,16.1,3,20.9,9c4.8,6,7.3,15,7.3,26.9c0,3.1-0.2,6.5-0.7,10.2c-0.4,3.7-1.3,7.4-2.4,11
		c-1.2,3.7-2.8,7.2-4.8,10.7c-2.1,3.5-4.7,6.5-8,9.1c-3.3,2.6-7.3,4.7-11.9,6.3C49.3,118.9,43.8,119.7,37.5,119.7z M44.3,54.1
		c-3.6,0-6.4,1-8.5,2.9c-2.1,1.9-3.6,4.2-4.7,6.9c-1.1,2.7-1.8,5.6-2.1,8.6c-0.3,3.1-0.5,5.7-0.5,8c0,6.9,0.9,11.8,2.9,14.8
		c1.9,3,4.7,4.4,8.6,4.4c3.6,0,6.4-1.1,8.5-3.4c2-2.2,3.6-4.9,4.6-8c1.1-3.1,1.7-6.2,2-9.5c0.3-3.2,0.5-5.7,0.5-7.5
		c0-5.6-0.9-9.9-2.6-12.8C51.2,55.6,48.4,54.1,44.3,54.1z"/>
	<path class="st0" d="M110.6,119.5c-6.2,0-10.6-1.6-13.4-4.9c-2.7-3.3-4.1-8.8-4.1-16.4c0-1.2,0.1-2.7,0.2-4.5s0.3-4.1,0.6-7
		c0.2-2.8,0.6-6.4,1-10.6c0.4-4.2,0.8-9.3,1.3-15.3c0.5-6,0.9-13.1,1.5-21.2c0.5-8.1,1.1-17.5,1.7-28.2c0.1-2.2,0.3-3.5,0.8-3.9
		c0.3-0.3,1.1-0.5,2.4-0.5h5.9c3,0,5.5,0.4,7.5,1.1c2,0.7,3.6,1.6,4.8,2.9c1.2,1.2,2,2.6,2.6,4.1c0.5,1.6,0.8,3.2,0.8,4.9
		c0,2-0.1,4.9-0.4,8.6c-0.3,3.8-0.6,8-1,12.7c-0.4,4.7-0.8,9.6-1.2,14.7c-0.4,5.1-0.8,10-1.2,14.6c-0.4,4.6-0.7,8.8-1,12.5
		c-0.3,3.7-0.4,6.5-0.4,8.4c0,2.6,0.5,4.5,1.4,5.6c0.9,1.1,2,1.9,3.1,2.3c1.1,0.5,2.1,0.8,3.1,0.9c0.9,0.2,1.4,0.5,1.4,1
		c0,2.2-0.3,4.4-0.8,6.5c-0.5,2.2-1.4,4.1-2.7,5.9c-1.3,1.8-3.1,3.1-5.3,4.2C116.9,119,114,119.5,110.6,119.5z"/>
	<path class="st0" d="M172,119.7c-6.9,0-12.6-1-17.2-2.9c-4.6-2-8.2-4.6-10.9-8c-2.7-3.4-4.6-7.4-5.7-11.9
		c-1.1-4.5-1.6-9.4-1.6-14.6c0-6,0.7-11.9,2.2-17.6c1.4-5.7,3.9-10.9,7.4-15.4c3.5-4.5,8.1-8.1,13.9-10.9c5.7-2.7,12.9-4.1,21.5-4.1
		c12.6,0,21.6,3.1,27.1,9.2c5.4,6.2,8.2,14.8,8.2,25.9c0,3.1-0.2,6.5-0.7,10.3c-0.4,3.8-1.3,7.5-2.5,11.2c-1.3,3.7-3,7.3-5.1,10.8
		c-2.2,3.5-4.9,6.6-8.2,9.3c-3.3,2.7-7.3,4.9-11.9,6.5C183.8,118.9,178.3,119.7,172,119.7z M179.1,54.1c-3.8,0-6.8,1-9.1,2.9
		s-4,4.3-5.1,7c-1.2,2.8-1.9,5.7-2.2,8.7c-0.4,3.1-0.5,5.6-0.5,7.7c0,6.6,1,11.5,3.1,14.5c2.1,3.1,5.1,4.7,9,4.7
		c3.5,0,6.4-1.1,8.6-3.3c2.2-2.2,4-4.8,5.2-8c1.2-3.1,2.1-6.3,2.5-9.8c0.5-3.4,0.7-6.2,0.7-8.6c0-5-0.9-8.9-2.8-11.8
		C186.8,55.5,183.6,54.1,179.1,54.1z"/>
	<path class="st0" d="M261.8,119.7c-6.9,0-12.6-1-17.2-2.9c-4.6-2-8.2-4.6-10.9-8c-2.7-3.4-4.6-7.4-5.7-11.9
		c-1.1-4.5-1.7-9.4-1.7-14.6c0-6,0.7-11.9,2.2-17.6c1.4-5.7,3.9-10.9,7.4-15.4c3.5-4.5,8.1-8.1,13.9-10.9c5.8-2.7,12.9-4.1,21.5-4.1
		c12.6,0,21.6,3.1,27.1,9.2c5.5,6.2,8.2,14.8,8.2,25.9c0,3.1-0.2,6.5-0.7,10.3c-0.5,3.8-1.3,7.5-2.6,11.2c-1.3,3.7-3,7.3-5.1,10.8
		c-2.2,3.5-4.9,6.6-8.2,9.3c-3.3,2.7-7.3,4.9-11.9,6.5C273.5,118.9,268,119.7,261.8,119.7z M268.8,54.1c-3.8,0-6.8,1-9.1,2.9
		s-4,4.3-5.1,7c-1.2,2.8-1.9,5.7-2.2,8.7c-0.4,3.1-0.5,5.6-0.5,7.7c0,6.6,1,11.5,3.2,14.5c2.1,3.1,5.1,4.7,9,4.7
		c3.5,0,6.4-1.1,8.6-3.3c2.2-2.2,4-4.8,5.2-8c1.2-3.1,2.1-6.3,2.5-9.8c0.5-3.4,0.7-6.2,0.7-8.6c0-5-0.9-8.9-2.8-11.8
		C276.5,55.5,273.3,54.1,268.8,54.1z"/>
	<path class="st0" d="M343.8,91.2c-0.3,4.6-0.7,9-1,13.1c-0.4,4.2-0.7,7.8-0.9,10.9c-0.1,1.2-0.4,2-0.8,2.4
		c-0.4,0.4-1.3,0.6-2.5,0.6h-5.4c-3.1,0-5.6-0.3-7.6-1c-2-0.6-3.5-1.6-4.6-2.8c-1.2-1.2-2-2.7-2.4-4.4c-0.5-1.7-0.7-3.8-0.7-6.1
		c0-1.5,0.1-3.6,0.2-6.4c0.2-2.8,0.4-6.5,0.8-11.4c0.4-4.8,0.9-11,1.4-18.5c0.5-7.4,1.2-16.7,2-27.7c0.1-2.2,0.3-3.5,0.8-3.9
		c0.3-0.3,1.1-0.5,2.4-0.5h5.9c3,0,5.4,0.4,7.3,1.1c1.9,0.7,3.5,1.6,4.7,2.7c1.2,1.1,2,2.4,2.5,3.9c0.5,1.5,0.8,3.1,0.9,4.6
		c2.9-5.4,6.2-9,9.9-11c3.7-1.9,8-2.9,13-2.9c2.7,0,5.3,0.3,7.8,0.8c2.5,0.5,4.7,1.4,6.8,2.6c2,1.2,3.7,2.8,5.1,4.7
		c1.4,1.9,2.4,4.4,3,7.4c3.1-5.8,6.5-9.8,10.2-12.1c3.7-2.2,8.3-3.4,14-3.4c3.1,0,6.1,0.3,8.9,1c2.8,0.7,5.3,1.8,7.4,3.4
		c2.1,1.6,3.8,3.8,5,6.5c1.2,2.8,1.9,6.2,1.9,10.3c0,3.1-0.2,6.9-0.5,11.4c-0.3,4.5-0.7,9.4-1,14.6c-0.4,5.2-0.9,10.6-1.4,16.2
		c-0.5,5.5-0.9,10.9-1.2,16c-0.1,1.1-0.2,2-0.3,2.6c-0.1,0.6-0.3,1-0.5,1.3c-0.2,0.3-0.6,0.5-1.1,0.6c-0.5,0.1-1.2,0.2-2.1,0.2h-4.8
		c-3.2,0-5.8-0.3-7.8-0.9c-2-0.6-3.6-1.4-4.6-2.5c-1.1-1.1-1.9-2.5-2.3-4.1s-0.7-3.5-0.7-5.6c0-1.3,0.1-3.2,0.2-5.5
		c0.2-2.4,0.3-5,0.6-7.8c0.2-2.8,0.5-5.7,0.8-8.7c0.2-3,0.5-5.8,0.8-8.3c0.2-2.5,0.4-4.8,0.6-6.7c0.2-1.9,0.2-3.1,0.2-3.8
		c0-2.6-0.5-4.9-1.6-6.9c-1.1-2-3.1-3-6.1-3c-2.6,0-4.9,0.9-6.8,2.5c-1.9,1.7-3.5,4.1-4.8,7.1c-1.3,3-2.4,6.6-3.1,10.7
		c-0.8,4.1-1.4,8.5-1.7,13.3c-0.2,3.1-0.5,6.7-0.8,10.7c-0.3,4-0.7,9-1,15c-0.1,1.1-0.2,2-0.3,2.6c-0.1,0.6-0.3,1-0.5,1.3
		c-0.3,0.3-0.6,0.5-1.1,0.6c-0.5,0.1-1.2,0.2-2.1,0.2H380c-3.2,0-5.8-0.3-7.8-0.9c-2-0.6-3.6-1.4-4.7-2.5c-1.1-1.1-1.9-2.5-2.3-4.1
		s-0.7-3.5-0.7-5.6c0-2,0.2-4.9,0.5-8.8c0.3-3.8,0.7-7.8,1-12c0.3-4.1,0.7-8.1,1-11.9c0.3-3.8,0.5-6.5,0.5-8.2
		c0-2.6-0.5-4.9-1.6-6.9c-1-2-3.1-3-6.1-3c-2.7,0-5,1-6.9,3c-1.9,2-3.5,4.7-4.7,8c-1.3,3.4-2.2,7.3-3,11.8S344.1,86.3,343.8,91.2z"
		/>
</g>
</svg>
